# xmcd
#
# Track frame offsets: 
#        150
#        16290
#        28365
#        42315
#        53837
#        65400
#        76010
#        89382
#        100905
#        111055
#        121855
#        137025
#        151875
#        165395
#        175937
#        188692
#        201875
#        214255
#        226192
#        240660
#
# Disc length: 3343 seconds
#
# Revision: 1
# Processed by: cddbd v1.5.2PL0 Copyright (c) Steve Scherf et al.
# Submitted via: ExactAudioCopy v1.0b3
#
DISCID=020d0d14
DTITLE=Tom Astor - 20 Erfolge
DYEAR=1994
DGENRE=Country
TTITLE0=Junger Adler (Ein Lied für (m)einen Sohn)
TTITLE1=Hallo, guten Morgen, Deutschland
TTITLE2=International airport (Frankfurt am Main)
TTITLE3=Freunde
TTITLE4=Ja, dann ist Sommer
TTITLE5=Tom Astor - Rattlesnake Annie - Irgendwo
TTITLE6=Denn der Sieger, der heißt Heimweh
TTITLE7=Blue Jeans, Rock'n'Roll und Elvis
TTITLE8=Die Liebe hat es schwer im dichten Stadtverkehr
TTITLE9=Ja, das sind Stunden (die vergisst man nie)
TTITLE10=Du, das mag ich
TTITLE11=Wir sind wieder schlecht bei Kasse
TTITLE12=Der kleine Trucker
TTITLE13=Wenn ein zartes Wesen mit Gefühl
TTITLE14=Wer hat ein Herz, das nie bricht (Some broken hearts never me
TTITLE14=nd)
TTITLE15=Ich bin ein undressierter Mann (Truckdriving gang)
TTITLE16=Ich bin dafür, dass wir dagegen sind
TTITLE17=Ich brauch' eine kleine Dosis Freiheit
TTITLE18=Susie, Susie
TTITLE19=Adios, Amigo
EXTD=YEAR: 2001 ID3G: 2
EXTT0=
EXTT1=
EXTT2=
EXTT3=
EXTT4=
EXTT5=
EXTT6=
EXTT7=
EXTT8=
EXTT9=
EXTT10=
EXTT11=
EXTT12=
EXTT13=
EXTT14=
EXTT15=
EXTT16=
EXTT17=
EXTT18=
EXTT19=
PLAYORDER=
